<?xml version="1.0" standalone="no"?>
<!DOCTYPE svg PUBLIC "-//W3C//DTD SVG 20010904//EN"
 "http://www.w3.org/TR/2001/REC-SVG-20010904/DTD/svg10.dtd">
<svg version="1.0" xmlns="http://www.w3.org/2000/svg"
 width="900.000000pt" height="900.000000pt" viewBox="0 0 900.000000 900.000000"
 preserveAspectRatio="xMidYMid meet">

<g transform="translate(0.000000,900.000000) scale(0.100000,-0.100000)"
fill="#000000" stroke="none">
<path d="M6138 7547 c61 -64 112 -121 112 -127 0 -16 -17 -13 -181 34 -277 79
-414 99 -669 99 -271 0 -473 -38 -733 -139 -87 -33 -177 -86 -177 -104 0 -14
126 -12 350 5 191 15 297 14 430 -6 75 -12 94 -24 59 -37 -13 -5 -123 -24
-244 -41 -330 -47 -544 -101 -800 -203 -212 -84 -525 -269 -525 -310 0 -14 95
-5 280 27 176 30 365 47 403 37 27 -7 28 -8 10 -24 -10 -9 -99 -60 -198 -114
-347 -187 -401 -228 -696 -523 -178 -179 -250 -263 -235 -278 12 -12 100 24
361 148 137 65 251 116 253 114 7 -7 -195 -517 -385 -970 -719 -1713 -1039
-2446 -1189 -2720 -102 -185 -148 -248 -288 -392 -248 -256 -394 -340 -716
-414 -161 -36 -212 -71 -196 -134 11 -43 57 -55 259 -67 217 -12 1923 -3 2092
12 159 14 200 50 131 115 -44 41 -118 67 -291 100 -239 47 -354 98 -467 210
-118 117 -159 256 -139 462 17 163 65 327 191 647 l62 158 772 -5 c767 -5 919
-12 1040 -43 116 -30 211 -93 282 -187 165 -219 288 -666 240 -872 -34 -143
-93 -228 -196 -280 -67 -34 -135 -48 -395 -84 -265 -37 -319 -48 -367 -72 -44
-22 -54 -48 -34 -87 17 -34 50 -50 132 -63 89 -15 1404 -21 2214 -11 643 7
718 10 747 25 62 33 56 94 -13 127 -41 20 -103 37 -453 120 -234 55 -348 116
-482 256 -165 175 -298 414 -671 1209 l-94 200 -1035 7 c-569 4 -1156 10
-1306 14 l-271 6 18 52 c32 95 372 915 571 1379 244 568 402 899 420 880 4 -5
45 -100 92 -213 223 -540 445 -969 675 -1305 126 -185 243 -336 322 -416 65
-66 82 -78 125 -87 28 -6 181 -14 340 -17 348 -7 539 -20 594 -40 63 -22 126
-70 245 -185 115 -112 229 -254 247 -308 21 -64 -17 -82 -271 -127 -180 -31
-212 -40 -235 -65 -15 -17 -16 -25 -5 -71 30 -124 252 -508 375 -649 186 -212
249 -249 291 -168 28 53 14 86 -93 220 -54 67 -119 155 -145 194 -60 91 -140
236 -134 242 3 2 49 -36 103 -86 172 -159 339 -282 384 -282 26 0 70 50 99
115 59 129 167 533 151 563 -5 9 -65 92 -134 183 -68 92 -199 280 -291 418
-188 282 -240 344 -323 389 -92 48 -397 165 -726 278 -189 65 -212 76 -231
112 -42 82 -66 316 -66 646 0 544 47 774 205 1012 68 102 185 223 269 278 59
39 224 112 232 103 3 -3 -25 -38 -61 -78 -84 -94 -138 -174 -166 -247 -19 -49
-23 -76 -23 -187 0 -250 76 -411 256 -548 91 -68 103 -82 117 -132 28 -103 4
-381 -41 -481 -16 -37 -22 -69 -22 -129 -1 -76 1 -83 36 -137 51 -79 140 -163
193 -184 59 -22 105 -14 231 39 218 93 346 190 382 288 63 173 121 959 141
1939 9 391 11 429 30 477 11 28 27 79 36 114 16 60 16 64 -2 77 -38 29 -94 10
-227 -78 -70 -45 -128 -81 -129 -79 -2 2 -9 18 -17 34 -21 43 -263 283 -342
338 -36 26 -104 65 -150 86 -104 49 -311 118 -381 127 l-52 7 113 -116z"/>
</g>
</svg>
