<svg version="1.1" xmlns="http://www.w3.org/2000/svg" xmlns:xlink="http://www.w3.org/1999/xlink" width="900.000000pt" height="900.000000pt" viewBox="0,0,255.99431,255.99431"><g fill="#16559e" fill-rule="nonzero" stroke="none" stroke-width="1" stroke-linecap="butt" stroke-linejoin="miter" stroke-miterlimit="10" stroke-dasharray="" stroke-dashoffset="0" font-family="none" font-weight="none" font-size="none" text-anchor="none" style="mix-blend-mode: normal"><g transform="translate(5.1017,0.92785) scale(0.28444,0.28444)"><g transform="translate(0,900) scale(0.1,-0.1)"><path d="M6138,7547c61,-64 112,-121 112,-127c0,-16 -17,-13 -181,34c-277,79 -414,99 -669,99c-271,0 -473,-38 -733,-139c-87,-33 -177,-86 -177,-104c0,-14 126,-12 350,5c191,15 297,14 430,-6c75,-12 94,-24 59,-37c-13,-5 -123,-24 -244,-41c-330,-47 -544,-101 -800,-203c-212,-84 -525,-269 -525,-310c0,-14 95,-5 280,27c176,30 365,47 403,37c27,-7 28,-8 10,-24c-10,-9 -99,-60 -198,-114c-347,-187 -401,-228 -696,-523c-178,-179 -250,-263 -235,-278c12,-12 100,24 361,148c137,65 251,116 253,114c7,-7 -195,-517 -385,-970c-719,-1713 -1039,-2446 -1189,-2720c-102,-185 -148,-248 -288,-392c-248,-256 -394,-340 -716,-414c-161,-36 -212,-71 -196,-134c11,-43 57,-55 259,-67c217,-12 1923,-3 2092,12c159,14 200,50 131,115c-44,41 -118,67 -291,100c-239,47 -354,98 -467,210c-118,117 -159,256 -139,462c17,163 65,327 191,647l62,158l772,-5c767,-5 919,-12 1040,-43c116,-30 211,-93 282,-187c165,-219 288,-666 240,-872c-34,-143 -93,-228 -196,-280c-67,-34 -135,-48 -395,-84c-265,-37 -319,-48 -367,-72c-44,-22 -54,-48 -34,-87c17,-34 50,-50 132,-63c89,-15 1404,-21 2214,-11c643,7 718,10 747,25c62,33 56,94 -13,127c-41,20 -103,37 -453,120c-234,55 -348,116 -482,256c-165,175 -298,414 -671,1209l-94,200l-1035,7c-569,4 -1156,10 -1306,14l-271,6l18,52c32,95 372,915 571,1379c244,568 402,899 420,880c4,-5 45,-100 92,-213c223,-540 445,-969 675,-1305c126,-185 243,-336 322,-416c65,-66 82,-78 125,-87c28,-6 181,-14 340,-17c348,-7 539,-20 594,-40c63,-22 126,-70 245,-185c115,-112 229,-254 247,-308c21,-64 -17,-82 -271,-127c-180,-31 -212,-40 -235,-65c-15,-17 -16,-25 -5,-71c30,-124 252,-508 375,-649c186,-212 249,-249 291,-168c28,53 14,86 -93,220c-54,67 -119,155 -145,194c-60,91 -140,236 -134,242c3,2 49,-36 103,-86c172,-159 339,-282 384,-282c26,0 70,50 99,115c59,129 167,533 151,563c-5,9 -65,92 -134,183c-68,92 -199,280 -291,418c-188,282 -240,344 -323,389c-92,48 -397,165 -726,278c-189,65 -212,76 -231,112c-42,82 -66,316 -66,646c0,544 47,774 205,1012c68,102 185,223 269,278c59,39 224,112 232,103c3,-3 -25,-38 -61,-78c-84,-94 -138,-174 -166,-247c-19,-49 -23,-76 -23,-187c0,-250 76,-411 256,-548c91,-68 103,-82 117,-132c28,-103 4,-381 -41,-481c-16,-37 -22,-69 -22,-129c-1,-76 1,-83 36,-137c51,-79 140,-163 193,-184c59,-22 105,-14 231,39c218,93 346,190 382,288c63,173 121,959 141,1939c9,391 11,429 30,477c11,28 27,79 36,114c16,60 16,64 -2,77c-38,29 -94,10 -227,-78c-70,-45 -128,-81 -129,-79c-2,2 -9,18 -17,34c-21,43 -263,283 -342,338c-36,26 -104,65 -150,86c-104,49 -311,118 -381,127l-52,7z"></path></g></g></g></svg>