<!DOCTYPE svg PUBLIC "-//W3C//DTD SVG 1.1//EN" "http://www.w3.org/Graphics/SVG/1.1/DTD/svg11.dtd">
<!-- Uploaded to: SVG Repo, www.svgrepo.com, Transformed by: SVG Repo Mixer Tools -->
<svg height="800px" width="800px" version="1.1" id="Layer_1" xmlns="http://www.w3.org/2000/svg" xmlns:xlink="http://www.w3.org/1999/xlink" viewBox="0 0 512 512" xml:space="preserve" fill="#000000">
<g id="SVGRepo_bgCarrier" stroke-width="0"/>
<g id="SVGRepo_tracerCarrier" stroke-linecap="round" stroke-linejoin="round"/>
<g id="SVGRepo_iconCarrier"> <path style="fill:#235aa6;" d="M486.881,435.574H25.119c-9.446,0-17.102-7.656-17.102-17.102V93.528 c0-9.446,7.656-17.102,17.102-17.102h461.762c9.446,0,17.102,7.656,17.102,17.102v324.944 C503.983,427.918,496.327,435.574,486.881,435.574z"/> <path style="fill:#235aa6;" d="M33.67,418.472V93.528c0-9.445,7.658-17.102,17.102-17.102H25.119 c-9.445,0-17.102,7.658-17.102,17.102v324.944c0,9.445,7.658,17.102,17.102,17.102h25.653 C41.328,435.574,33.67,427.917,33.67,418.472z"/> <path style="fill:#E7EBEC;" d="M452.676,392.818H59.324c-4.722,0-8.551-3.829-8.551-8.551V127.733c0-4.722,3.829-8.551,8.551-8.551 h393.353c4.722,0,8.551,3.829,8.551,8.551v256.534C461.228,388.99,457.399,392.818,452.676,392.818z"/> <path style="fill:#CED7D9;" d="M76.426,384.267V127.733c0-4.722,3.829-8.551,8.551-8.551H59.324c-4.722,0-8.551,3.829-8.551,8.551 v256.534c0,4.722,3.829,8.551,8.551,8.551h25.653C80.255,392.818,76.426,388.99,76.426,384.267z"/> <g> <polygon style="fill:#FDD349;" points="186.772,236.363 154.037,246.347 189.423,350.063 197.325,320.261 221.795,339.018 "/> <polygon style="fill:#FDD349;" points="137.103,236.363 169.838,246.347 134.452,350.063 126.55,320.261 102.079,339.018 "/> </g> <circle style="fill:#FF5800;" cx="161.937" cy="221.795" r="59.858"/> <circle style="fill:#FDD349;" cx="161.937" cy="221.795" r="34.205"/> <path style="fill:#FCB82D;" d="M179.04,247.449c-18.891,0-34.205-15.314-34.205-34.205c0-9.919,4.226-18.847,10.971-25.094 c-15.963,2.89-28.073,16.849-28.073,33.646c0,18.891,15.314,34.205,34.205,34.205c8.972,0,17.132-3.459,23.233-9.11 C183.181,247.25,181.134,247.449,179.04,247.449z"/> <path style="fill:#6D888E;" d="M397.094,187.591H285.929c-7.084,0-12.827-5.743-12.827-12.827l0,0 c0-7.084,5.743-12.827,12.827-12.827h111.165c7.084,0,12.827,5.743,12.827,12.827l0,0 C409.921,181.848,404.178,187.591,397.094,187.591z"/> <path d="M486.881,68.409H25.119C11.268,68.409,0,79.677,0,93.528v324.944c0,13.851,11.268,25.119,25.119,25.119h94.419 c4.428,0,8.017-3.588,8.017-8.017s-3.588-8.017-8.017-8.017H25.119c-5.01,0-9.086-4.076-9.086-9.086V93.528 c0-5.01,4.076-9.086,9.086-9.086h461.762c5.01,0,9.086,4.076,9.086,9.086v324.944c0,5.01-4.076,9.086-9.086,9.086H154.037 c-4.428,0-8.017,3.588-8.017,8.017s3.588,8.017,8.017,8.017h332.844c13.851,0,25.119-11.268,25.119-25.119V93.528 C512,79.677,500.732,68.409,486.881,68.409z"/> <path d="M358.258,111.165H59.324c-9.136,0-16.568,7.432-16.568,16.568v256.534c0,9.136,7.432,16.568,16.568,16.568h393.353 c9.136,0,16.568-7.432,16.568-16.568V127.733c0-9.136-7.432-16.568-16.568-16.568h-59.858c-4.428,0-8.017,3.588-8.017,8.017 c0,4.428,3.588,8.017,8.017,8.017h59.858c0.294,0,0.534,0.241,0.534,0.534v256.534c0,0.294-0.241,0.534-0.534,0.534H59.324 c-0.294,0-0.534-0.241-0.534-0.534V127.733c0-0.294,0.24-0.534,0.534-0.534h298.934c4.428,0,8.017-3.588,8.017-8.017 C366.275,114.753,362.686,111.165,358.258,111.165z"/> <path d="M97.403,345.529c2.87,2.061,6.748,2,9.554-0.15l14.926-11.44l4.822,18.179c0.905,3.414,3.94,5.834,7.469,5.956 c0.094,0.003,0.188,0.005,0.281,0.005c3.417,0,6.475-2.173,7.586-5.428l19.897-58.32l19.897,58.32 c1.111,3.255,4.167,5.428,7.586,5.428c0.093,0,0.187-0.002,0.281-0.005c3.531-0.122,6.565-2.542,7.469-5.956l4.822-18.179 l14.926,11.44c2.819,2.16,6.839,2.182,9.681,0.053c2.749-2.059,3.892-5.753,2.783-9.004l-21.943-64.316 c13.73-12.429,22.371-30.382,22.371-50.317c0-37.426-30.449-67.875-67.875-67.875s-67.875,30.449-67.875,67.875 c0,19.935,8.641,37.888,22.372,50.317l-21.943,64.316C93.352,339.772,94.533,343.469,97.403,345.529z M205.658,316.549 c-1.121-0.859-2.231-1.738-3.365-2.579c-2.315-1.718-5.281-2.234-7.989-1.132c-4.137,1.684-4.83,5.756-5.845,9.579l-11.732-34.388 c6.02-1.344,11.743-3.481,17.047-6.311L205.658,316.549z M110.096,221.795c0-28.585,23.256-51.841,51.841-51.841 s51.841,23.256,51.841,51.841s-23.256,51.841-51.841,51.841S110.096,250.381,110.096,221.795z M147.147,288.027l-11.732,34.388 c-1.014-3.823-1.707-7.895-5.845-9.579c-2.708-1.102-5.674-0.586-7.989,1.132c-1.134,0.842-2.244,1.72-3.365,2.579l11.884-34.831 C135.404,284.546,141.126,286.684,147.147,288.027z"/> <path d="M161.937,264.017c23.281,0,42.221-18.941,42.221-42.221s-18.941-42.221-42.221-42.221s-42.221,18.941-42.221,42.221 S138.657,264.017,161.937,264.017z M161.937,195.608c14.441,0,26.188,11.747,26.188,26.188s-11.747,26.188-26.188,26.188 c-14.441,0-26.188-11.747-26.188-26.188S147.497,195.608,161.937,195.608z"/> <path d="M409.921,230.881h-17.102c-4.428,0-8.017,3.588-8.017,8.017c0,4.428,3.588,8.017,8.017,8.017h17.102 c4.428,0,8.017-3.588,8.017-8.017C417.937,234.469,414.349,230.881,409.921,230.881z"/> <path d="M273.102,298.221h25.653c4.428,0,8.017-3.588,8.017-8.017s-3.588-8.017-8.017-8.017h-25.653 c-4.428,0-8.017,3.588-8.017,8.017S268.674,298.221,273.102,298.221z"/> <path d="M367.165,246.914c4.428,0,8.017-3.588,8.017-8.017c0-4.428-3.588-8.017-8.017-8.017h-25.653 c-4.428,0-8.017,3.588-8.017,8.017c0,4.428,3.588,8.017,8.017,8.017H367.165z"/> <path d="M273.102,246.914h42.756c4.428,0,8.017-3.588,8.017-8.017c0-4.428-3.588-8.017-8.017-8.017h-42.756 c-4.428,0-8.017,3.588-8.017,8.017C265.086,243.326,268.674,246.914,273.102,246.914z"/> <path d="M409.921,282.188h-85.512c-4.428,0-8.017,3.588-8.017,8.017s3.588,8.017,8.017,8.017h85.512 c4.428,0,8.017-3.588,8.017-8.017S414.349,282.188,409.921,282.188z"/> <path d="M397.094,153.921H285.929c-11.493,0-20.843,9.351-20.843,20.843c0,11.493,9.351,20.843,20.843,20.843h111.165 c11.493,0,20.843-9.351,20.843-20.843C417.937,163.271,408.587,153.921,397.094,153.921z M397.094,179.574H285.929 c-2.652,0-4.81-2.158-4.81-4.81s2.158-4.81,4.81-4.81h111.165c2.652,0,4.81,2.158,4.81,4.81S399.746,179.574,397.094,179.574z"/> <path d="M273.102,349.528h68.409c4.428,0,8.017-3.588,8.017-8.017c0-4.428-3.588-8.017-8.017-8.017h-68.409 c-4.428,0-8.017,3.588-8.017,8.017C265.086,345.94,268.674,349.528,273.102,349.528z"/> <path d="M409.921,333.495h-42.756c-4.428,0-8.017,3.588-8.017,8.017c0,4.428,3.588,8.017,8.017,8.017h42.756 c4.428,0,8.017-3.588,8.017-8.017C417.937,337.083,414.349,333.495,409.921,333.495z"/> </g>
</svg>