<svg version="1.0"
    xmlns="http://www.w3.org/2000/svg" width="456" height="456" viewBox="-100 -240 1256 1256" style=" transform: scale(2.1);" preserveAspectRatio="xMidYMid meet">
    <g transform="translate(0.000000,900.000000) scale(0.100000,-0.100000)" fill="white" stroke="none" style="background-color: white;">
        <path d="M6138 7549 c61 -63 112 -120 112 -127 0 -20 -31 -14 -182 33 -348
                    111 -745 132 -1083 59 -90 -20 -299 -88 -378 -123 -74 -33 -132 -80 -119 -93
                    6 -6 79 -4 198 6 330 27 366 28 492 16 125 -11 172 -22 172 -38 0 -13 -92 -30
                    -275 -52 -432 -50 -878 -202 -1175 -400 -103 -68 -140 -98 -140 -113 0 -16
                    130 -2 310 33 170 33 389 47 397 25 4 -14 -55 -49 -265 -159 -100 -52 -228
                    -127 -285 -167 -158 -113 -597 -552 -597 -597 0 -30 76 -2 330 122 256 124
                    290 140 290 130 0 -13 -171 -450 -269 -687 -146 -353 -761 -1807 -904 -2137
                    -278 -642 -438 -963 -555 -1110 -96 -120 -233 -257 -331 -331 -174 -131 -284
                    -180 -502 -224 -175 -36 -232 -72 -215 -139 19 -74 94 -79 1281 -73 1057 4
                    1170 9 1213 49 31 30 28 51 -12 86 -49 43 -128 69 -292 97 -158 28 -238 53
                    -335 107 -124 70 -214 175 -256 299 -30 89 -25 284 11 429 32 128 86 285 171
                    497 l57 143 406 2 c501 4 1052 -6 1232 -21 182 -15 281 -49 379 -130 150 -123
                    292 -459 323 -763 10 -100 10 -127 -4 -190 -30 -136 -82 -217 -179 -275 -72
                    -43 -131 -56 -417 -93 -263 -34 -343 -50 -382 -79 -32 -23 -36 -60 -11 -92 53
                    -68 155 -72 1686 -66 715 3 1324 10 1354 15 62 10 91 37 91 83 0 54 -78 84
                    -385 149 -222 48 -299 71 -395 121 -102 53 -182 121 -267 226 -160 199 -275
                    416 -672 1269 l-38 81 -1129 6 c-621 4 -1208 10 -1305 14 l-177 6 23 67 c27
                    78 386 945 547 1319 233 541 350 797 412 896 l25 40 21 -50 c12 -27 35 -84 52
                    -125 133 -334 329 -749 479 -1010 152 -267 398 -618 523 -748 113 -118 90
                    -112 494 -118 392 -6 537 -16 600 -44 153 -68 490 -433 480 -520 -4 -35 -56
                    -58 -175 -76 -165 -26 -289 -51 -319 -65 -17 -8 -30 -24 -32 -37 -8 -56 77
                    -243 202 -446 100 -161 167 -249 281 -364 85 -86 106 -102 133 -102 60 0 94
                    94 55 150 -10 14 -53 67 -96 119 -44 52 -107 137 -142 190 -65 100 -148 251
                    -139 251 3 0 33 -26 67 -58 215 -203 379 -325 431 -320 65 6 130 149 207 457
                    27 107 49 200 49 206 0 7 -42 66 -94 131 -111 142 -270 369 -409 587 -72 114
                    -120 176 -168 222 -65 61 -74 66 -270 143 -196 77 -436 164 -640 231 -54 18
                    -105 41 -117 54 -104 111 -118 1022 -21 1377 71 263 282 532 494 631 76 35
                    165 70 165 64 0 -2 -32 -39 -71 -82 -166 -182 -205 -278 -196 -481 9 -228 103
                    -401 282 -522 96 -65 105 -88 106 -263 0 -142 -17 -253 -49 -328 -49 -114 -48
                    -183 4 -263 84 -127 180 -206 252 -206 102 0 380 136 501 245 51 46 75 109 95
                    250 50 354 94 1082 105 1740 l8 460 37 105 c20 58 35 116 34 130 -3 23 -8 25
                    -53 28 -54 3 -69 -5 -230 -115 -42 -29 -80 -53 -85 -53 -4 0 -11 12 -14 26 -9
                    35 -230 260 -329 335 -42 32 -110 74 -150 93 -102 48 -334 126 -399 133 l-53
                    5 113 -113z" />
    </g>
</svg>