<svg xmlns="http://www.w3.org/2000/svg" width="302" height="236" viewBox="0 0 302 236" version="1.1"><path d="" stroke="none" fill="#000000" fill-rule="evenodd"/><path d="" stroke="none" fill="#c80c24" fill-rule="evenodd"/><path d="M 112.652 10.656 C 112.293 16.516, 112 35.914, 112 53.763 C 112 82.943, 112.159 86.153, 113.582 85.607 C 114.452 85.273, 117.564 85, 120.497 85 L 125.830 85 139.795 43.119 L 153.759 1.239 149.240 0.619 C 146.755 0.279, 137.652 -0, 129.012 -0 L 113.304 0 112.652 10.656 M 94.500 3.917 C 83.105 6.844, 69.496 12.362, 70.316 13.722 C 70.574 14.150, 76.066 31.600, 82.519 52.500 C 88.972 73.400, 94.383 90.650, 94.543 90.834 C 94.703 91.018, 97.501 90.195, 100.761 89.007 L 106.688 86.846 107.341 66.673 C 108.464 32.010, 108.185 0.993, 106.750 1.045 C 106.063 1.071, 100.550 2.363, 94.500 3.917 M 157.499 3.162 C 155.390 8.747, 131 82.696, 131 83.507 C 131 84.416, 140.173 86.856, 145.371 87.330 C 146.750 87.455, 154.202 78.092, 173.684 51.755 C 188.226 32.095, 199.863 15.587, 199.544 15.071 C 198.229 12.944, 172.149 4.174, 162.252 2.530 C 159.114 2.009, 157.872 2.174, 157.499 3.162 M 59.500 18.620 C 52.746 22.688, 42.835 30.385, 38.848 34.658 L 36.196 37.500 58.449 69 C 70.687 86.325, 81.128 100.500, 81.649 100.500 C 82.171 100.500, 84.437 98.925, 86.685 97 L 90.771 93.500 78.636 54.251 C 71.961 32.663, 66.275 15.002, 66 15.003 C 65.725 15.004, 62.800 16.632, 59.500 18.620 M 190.086 36.750 C 182.450 47.063, 170.539 63.150, 163.617 72.500 C 152.992 86.851, 151.278 89.656, 152.616 90.500 C 153.487 91.050, 156.960 93.324, 160.334 95.553 L 166.467 99.605 204.243 72.617 L 242.019 45.629 239.259 42.718 C 232.225 35.299, 208.414 18, 205.234 18 C 204.538 18, 197.721 26.438, 190.086 36.750 M 25.792 49.381 C 22.331 54.066, 18.059 60.528, 16.297 63.741 L 13.094 69.583 42.038 91.288 C 57.957 103.227, 71.450 113.108, 72.021 113.247 C 72.592 113.386, 74.238 111.451, 75.679 108.948 L 78.299 104.395 56.098 72.948 C 43.888 55.651, 33.489 41.356, 32.991 41.181 C 32.492 41.005, 29.253 44.695, 25.792 49.381 M 207.999 75.061 C 187.924 89.395, 171.100 101.517, 170.611 102 C 170.096 102.509, 171.495 104.892, 173.942 107.672 C 176.263 110.308, 178.898 113.711, 179.797 115.233 C 180.696 116.755, 181.672 117.995, 181.966 117.990 C 183.141 117.968, 270.101 90.233, 270.619 89.714 C 271.558 88.775, 262.021 71.253, 256.098 63.038 C 250.621 55.442, 245.443 49, 244.813 49 C 244.640 49, 228.073 60.727, 207.999 75.061 M 8.723 80.250 C 5.395 88.603, 1.607 104.033, 2.658 104.953 C 3.693 105.860, 66.058 127.039, 67.625 127.016 C 68.244 127.007, 69 125.763, 69.305 124.250 C 69.610 122.737, 70.137 120.784, 70.476 119.909 C 70.941 118.708, 63.840 112.877, 41.554 96.159 C 25.308 83.971, 11.835 74, 11.614 74 C 11.393 74, 10.092 76.813, 8.723 80.250 M 118.500 92.674 C 110.503 93.672, 111 92.862, 111 104.902 C 111 115.033, 111.139 115.803, 113.061 116.306 C 114.195 116.602, 115.318 116.317, 115.557 115.672 C 117.270 111.058, 123 93.452, 123 92.804 C 123 92.362, 122.662 92.067, 122.250 92.150 C 121.838 92.232, 120.150 92.468, 118.500 92.674 M 127.053 94.396 C 126.621 95.553, 124.761 101.113, 122.921 106.751 C 119.779 116.374, 119.677 117.106, 121.263 118.692 C 122.192 119.621, 123.126 120.183, 123.339 119.940 C 126.120 116.771, 141 95.776, 141 95.021 C 141 94.459, 140.213 93.973, 139.250 93.940 C 138.287 93.908, 135.326 93.523, 132.670 93.087 C 128.297 92.368, 127.765 92.492, 127.053 94.396 M 228 107.971 C 204.075 115.580, 184.512 122.187, 184.527 122.653 C 184.542 123.119, 185.615 126.875, 186.913 131 C 188.210 135.125, 189.422 139.063, 189.605 139.750 C 189.865 140.727, 200.117 141, 236.616 141 L 283.295 141 282.651 132.620 C 281.674 119.911, 274.682 93.866, 272.301 94.068 C 271.860 94.105, 251.925 100.362, 228 107.971 M 101.144 97.074 C 98.306 98.334, 96.972 99.484, 97.314 100.376 C 97.603 101.129, 98.803 104.980, 99.980 108.934 C 101.860 115.245, 102.389 116.085, 104.311 115.812 C 106.379 115.517, 106.516 114.931, 106.785 105.250 C 106.942 99.612, 106.717 95.032, 106.285 95.071 C 105.853 95.109, 103.540 96.011, 101.144 97.074 M 136.202 109.607 C 128.730 119.711, 127.134 122.456, 128.074 123.590 C 128.718 124.365, 129.633 125, 130.107 125 C 131.331 125, 159 105.035, 159 104.152 C 159 103.106, 148.684 96.997, 146.951 97.017 C 146.153 97.026, 141.316 102.692, 136.202 109.607 M 89.302 105.160 L 86.142 108.320 89.821 113.622 C 93.568 119.023, 94.485 119.613, 96.820 118.132 C 97.887 117.456, 97.695 115.829, 95.820 109.657 C 94.544 105.456, 93.266 102.015, 92.981 102.009 C 92.695 102.004, 91.040 103.422, 89.302 105.160 M 148.267 117.693 C 139.893 123.637, 133.039 128.950, 133.036 129.500 C 133.014 133.381, 134.653 133.181, 154.313 126.907 L 173.909 120.654 172.381 118.077 C 171.540 116.660, 169.196 113.562, 167.172 111.193 L 163.493 106.887 148.267 117.693 M 0.642 113.750 C 0.301 115.813, 0.017 122.787, 0.011 129.250 L 0 141 33.783 141 L 67.565 141 67.757 136.597 C 67.903 133.239, 67.539 132.034, 66.224 131.520 C 61.045 129.495, 3.099 110, 2.259 110 C 1.711 110, 0.983 111.688, 0.642 113.750 M 81.078 115.088 L 78.989 118.500 82.245 121.223 C 85.784 124.184, 86.747 124.446, 88.954 123.050 C 90.613 122, 89.703 119.757, 85.522 114.588 L 83.167 111.677 81.078 115.088 M 76.553 126.645 C 75.790 129.685, 76.462 130.602, 80.114 131.504 C 84.063 132.478, 84.933 129.200, 81.508 126.253 C 78.139 123.355, 77.363 123.416, 76.553 126.645 M 171 126.023 C 169.625 126.499, 161.188 129.191, 152.250 132.007 C 138.602 136.305, 136 137.435, 136 139.062 C 136 140.923, 136.913 141, 158.919 141 L 181.839 141 180.879 137.250 C 177.843 125.388, 176.675 124.059, 171 126.023 M 75 137.892 C 75 140.500, 75.383 141, 77.383 141 C 79 141, 79.952 140.290, 80.344 138.794 C 81.033 136.158, 81.169 136.331, 77.748 135.473 C 75.192 134.831, 75 135.001, 75 137.892 M 1.608 153.221 C 3.139 161.257, 6.815 173, 7.799 173 C 8.659 173, 69.407 153.868, 69.850 153.458 C 70.042 153.280, 69.670 151.529, 69.022 149.567 L 67.845 146 34.039 146 L 0.232 146 1.608 153.221 M 136 148.417 C 136 150.674, 137.439 151.319, 157.750 158.167 C 169.713 162.200, 180.003 165.634, 180.617 165.798 C 181.916 166.144, 183.503 151.159, 182.501 148.003 C 181.889 146.076, 181 146, 158.933 146 L 136 146 136 148.417 M 133.667 155.667 C 133.300 156.033, 133.020 157.046, 133.043 157.917 C 133.087 159.511, 173.770 190.563, 174.655 189.678 C 175.641 188.692, 180 174.710, 180 172.533 C 180 170.463, 177.991 169.568, 157.750 162.614 C 134.054 154.473, 134.680 154.654, 133.667 155.667 M 39.713 167.469 C 23.881 172.568, 10.619 177.047, 10.243 177.423 C 8.473 179.194, 23.275 201.537, 25.383 200.275 C 26.095 199.849, 37.959 191.439, 51.748 181.586 L 76.817 163.672 74.721 160.836 C 73.517 159.208, 71.746 158.042, 70.562 158.099 C 69.428 158.153, 55.546 162.370, 39.713 167.469 M 128.086 164.396 C 127.065 165.626, 129.610 169.791, 143.086 188.939 C 152.013 201.622, 159.641 212, 160.038 212 C 161.557 212, 172.025 196.885, 171.960 194.785 C 171.922 193.533, 132.878 163.790, 130.507 163.207 C 129.852 163.046, 128.763 163.581, 128.086 164.396 M 54.992 184.551 C 41.521 194.204, 29.825 202.501, 29 202.989 C 27.770 203.717, 28.221 204.632, 31.500 208.065 C 35.600 212.358, 46.614 221, 47.985 221 C 48.610 221, 82.639 175.703, 85.277 171.360 C 85.794 170.508, 85.058 169.564, 83.077 168.540 C 81.439 167.693, 79.961 167, 79.792 167 C 79.623 167, 68.463 174.898, 54.992 184.551 M 121.200 170.200 C 120.540 170.860, 120 171.873, 120 172.450 C 119.999 174.375, 136.270 226.484, 137.188 227.496 C 138.978 229.468, 156.425 217.693, 155.698 215.005 C 155.143 212.954, 124.013 169, 123.116 169 C 122.722 169, 121.860 169.540, 121.200 170.200 M 73.309 194.887 C 64.141 207.324, 55.561 218.938, 54.243 220.694 L 51.847 223.889 57.174 226.589 C 65.572 230.845, 76.010 234.141, 76.550 232.707 C 80.117 223.228, 95.821 174.520, 95.486 173.977 C 95.235 173.571, 93.893 173.022, 92.504 172.756 C 90.205 172.316, 88.487 174.297, 73.309 194.887 M 112.250 174.072 L 110 174.936 109.991 200.218 C 109.987 214.123, 109.693 227.914, 109.338 230.865 L 108.694 236.230 114.097 235.496 C 118.758 234.862, 131.893 231.354, 132.815 230.496 C 133.257 230.085, 115.982 174.645, 115.166 173.854 C 114.800 173.499, 113.487 173.597, 112.250 174.072 M 90.357 204.447 C 84.969 220.643, 80.921 234.255, 81.361 234.697 C 81.801 235.139, 87.300 235.651, 93.581 235.836 L 105 236.172 105.002 227.336 C 105.004 222.476, 105.300 208.713, 105.662 196.750 L 106.319 175 103.236 175 L 100.154 175 90.357 204.447" stroke="none" fill="#c40c24" fill-rule="evenodd"/></svg>