<?xml version="1.0" encoding="utf-8"?>
<svg xmlns="http://www.w3.org/2000/svg" viewBox="0 0 60 48">
<path fill="#CF0A2C" transform="translate(0-7)" d="M33.7,8c-1.5,0-3.1,0.2-4.5,0.4c-1.5-0.3-3-0.4-4.5-0.4C12.3,8,2.3,18.1,2.3,30.5S12.4,53,24.8,53c1.5,0,3-0.2,4.5-0.5c1.5,0.3,3,0.5,4.5,0.5c12.3,0,22.4-10.1,22.4-22.5C56.1,18.1,46.1,8,33.7,8
M11.2,30.5c0-10.9,7.7-19.9,18-22v44C18.9,50.4,11.2,41.3,11.2,30.5
M33.7,52.3c-1,0-2-0.1-2.9-0.2c9.4-2.7,16.4-11.3,16.4-21.6s-6.9-19-16.4-21.6c1-0.1,2-0.2,2.9-0.2c12,0,21.7,9.8,21.7,21.8C55.5,42.5,45.7,52.3,33.7,52.3"/>
</svg>